<?xml version="1.0" encoding="UTF-8" standalone="no"?>
<!DOCTYPE svg PUBLIC "-//W3C//DTD SVG 1.1//EN" "http://www.w3.org/Graphics/SVG/1.1/DTD/svg11.dtd">
<svg width="100%" height="100%" viewBox="0 0 3300 1306" version="1.1" xmlns="http://www.w3.org/2000/svg" xmlns:xlink="http://www.w3.org/1999/xlink" xml:space="preserve" xmlns:serif="http://www.serif.com/" style="fill-rule:evenodd;clip-rule:evenodd;stroke-linejoin:round;stroke-miterlimit:2;">
    <g transform="matrix(0.996388,0,0,1,3.928835,-0)">
        <path d="M3187.796,0C3206.406,-0 3221.493,15.032 3221.493,33.575C3221.493,216.28 3221.493,1089.282 3221.493,1271.988C3221.493,1290.531 3206.406,1305.563 3187.796,1305.563C2868.087,1305.562 374.102,1305.562 54.393,1305.563C35.783,1305.563 20.697,1290.531 20.697,1271.988C20.697,1089.282 20.697,216.28 20.697,33.575C20.697,15.032 35.783,-0 54.393,-0C374.102,0 2868.087,0 3187.796,0Z" style="fill:rgb(6,153,94);"/>
    </g>
    <g>
        <g transform="matrix(1,0,0,0.984962,0,-0.662495)">
            <path d="M154.475,5.436L154.475,104.422C154.475,117.548 149.339,130.137 140.197,139.418C131.055,148.7 118.656,153.914 105.727,153.914L105.727,153.914C78.804,153.914 56.978,131.756 56.978,104.422L56.978,5.436L154.475,5.436Z" style="fill:rgb(251,207,99);"/>
        </g>
        <g transform="matrix(1,0,0,0.984962,158.362392,-0.662495)">
            <path d="M154.475,5.436L154.475,104.422C154.475,117.548 149.339,130.137 140.197,139.418C131.055,148.7 118.656,153.914 105.727,153.914L105.727,153.914C78.804,153.914 56.978,131.756 56.978,104.422L56.978,5.436L154.475,5.436Z" style="fill:rgb(251,207,99);"/>
        </g>
        <g transform="matrix(1,0,0,0.984962,477.540538,-0.662495)">
            <path d="M154.475,5.436L154.475,104.422C154.475,117.548 149.339,130.137 140.197,139.418C131.055,148.7 118.656,153.914 105.727,153.914L105.727,153.914C78.804,153.914 56.978,131.756 56.978,104.422L56.978,5.436L154.475,5.436Z" style="fill:rgb(251,207,99);"/>
        </g>
        <g transform="matrix(1,0,0,0.984962,636.972733,-0.662495)">
            <path d="M154.475,5.436L154.475,104.422C154.475,117.548 149.339,130.137 140.197,139.418C131.055,148.7 118.656,153.914 105.727,153.914L105.727,153.914C78.804,153.914 56.978,131.756 56.978,104.422L56.978,5.436L154.475,5.436Z" style="fill:rgb(251,207,99);"/>
        </g>
        <g transform="matrix(1,0,0,0.984962,796.672428,-0.662495)">
            <path d="M154.475,5.436L154.475,104.422C154.475,117.548 149.339,130.137 140.197,139.418C131.055,148.7 118.656,153.914 105.727,153.914L105.727,153.914C78.804,153.914 56.978,131.756 56.978,104.422L56.978,5.436L154.475,5.436Z" style="fill:rgb(251,207,99);"/>
        </g>
        <g transform="matrix(1,0,0,0.984962,955.837165,-0.662495)">
            <path d="M154.475,5.436L154.475,104.422C154.475,117.548 149.339,130.137 140.197,139.418C131.055,148.7 118.656,153.914 105.727,153.914L105.727,153.914C78.804,153.914 56.978,131.756 56.978,104.422L56.978,5.436L154.475,5.436Z" style="fill:rgb(251,207,99);"/>
        </g>
        <g transform="matrix(1,0,0,0.959739,1272.829059,-0.525373)">
            <path d="M154.475,5.436L154.475,103.121C154.475,116.592 149.339,129.512 140.197,139.037C131.055,148.563 118.656,153.914 105.727,153.914L105.727,153.914C78.804,153.914 56.978,131.173 56.978,103.121L56.978,5.436L154.475,5.436Z" style="fill:rgb(251,207,99);"/>
        </g>
        <g transform="matrix(1,0,0,0.959739,1432.796254,-0.525373)">
            <path d="M154.475,5.436L154.475,103.121C154.475,116.592 149.339,129.512 140.197,139.037C131.055,148.563 118.656,153.914 105.727,153.914L105.727,153.914C78.804,153.914 56.978,131.173 56.978,103.121L56.978,5.436L154.475,5.436Z" style="fill:rgb(251,207,99);"/>
        </g>
        <g transform="matrix(1,0,0,0.959739,1593.021695,-0.525373)">
            <path d="M154.475,5.436L154.475,103.121C154.475,116.592 149.339,129.512 140.197,139.037C131.055,148.563 118.656,153.914 105.727,153.914L105.727,153.914C78.804,153.914 56.978,131.173 56.978,103.121L56.978,5.436L154.475,5.436Z" style="fill:rgb(251,207,99);"/>
        </g>
        <g transform="matrix(1,0,0,0.959739,1752.18635,-0.525373)">
            <path d="M154.475,5.436L154.475,103.121C154.475,116.592 149.339,129.512 140.197,139.037C131.055,148.563 118.656,153.914 105.727,153.914L105.727,153.914C78.804,153.914 56.978,131.173 56.978,103.121L56.978,5.436L154.475,5.436Z" style="fill:rgb(251,207,99);"/>
        </g>
        <g transform="matrix(1,0,0,0.959739,2070.248222,-0.525373)">
            <path d="M154.475,5.436L154.475,103.121C154.475,116.592 149.339,129.512 140.197,139.037C131.055,148.563 118.656,153.914 105.727,153.914L105.727,153.914C78.804,153.914 56.978,131.173 56.978,103.121L56.978,5.436L154.475,5.436Z" style="fill:rgb(251,207,99);"/>
        </g>
        <g transform="matrix(1,0,0,0.959739,2229.145398,-0.525373)">
            <path d="M154.475,5.436L154.475,103.121C154.475,116.592 149.339,129.512 140.197,139.037C131.055,148.563 118.656,153.914 105.727,153.914L105.727,153.914C78.804,153.914 56.978,131.173 56.978,103.121L56.978,5.436L154.475,5.436Z" style="fill:rgb(251,207,99);"/>
        </g>
        <g transform="matrix(1,0,0,0.959739,2388.577614,-0.525373)">
            <path d="M154.475,5.436L154.475,103.121C154.475,116.592 149.339,129.512 140.197,139.037C131.055,148.563 118.656,153.914 105.727,153.914L105.727,153.914C78.804,153.914 56.978,131.173 56.978,103.121L56.978,5.436L154.475,5.436Z" style="fill:rgb(251,207,99);"/>
        </g>
        <g transform="matrix(1,0,0,0.959739,2547.47481,-0.525373)">
            <path d="M154.475,5.436L154.475,103.121C154.475,116.592 149.339,129.512 140.197,139.037C131.055,148.563 118.656,153.914 105.727,153.914L105.727,153.914C78.804,153.914 56.978,131.173 56.978,103.121L56.978,5.436L154.475,5.436Z" style="fill:rgb(251,207,99);"/>
        </g>
        <g transform="matrix(1,0,0,0.925508,2865.536682,-0.339278)">
            <path d="M154.475,5.436L154.475,101.242C154.475,115.212 149.339,128.609 140.197,138.487C131.055,148.365 118.656,153.914 105.727,153.914L105.727,153.914C78.804,153.914 56.978,130.332 56.978,101.242L56.978,5.436L154.475,5.436Z" style="fill:rgb(251,207,99);"/>
        </g>
        <g transform="matrix(1.052646,0,0,1.029349,-21.699547,-0.137711)">
            <path d="M471.756,4.692L471.756,135.285C471.756,138.443 470.529,141.472 468.346,143.705C466.162,145.938 463.201,147.192 460.113,147.192C441.782,147.192 406.401,147.192 388.071,147.192C384.983,147.192 382.022,145.938 379.838,143.705C377.655,141.472 376.428,138.443 376.428,135.285C376.428,101.035 376.428,4.692 376.428,4.692L471.756,4.692Z" style="fill:rgb(251,207,99);"/>
        </g>
        <g transform="matrix(1.052646,0,0,1.029349,772.965388,-2.228845)">
            <path d="M471.756,4.692L471.756,135.285C471.756,138.443 470.529,141.472 468.346,143.705C466.162,145.938 463.201,147.192 460.113,147.192C441.782,147.192 406.401,147.192 388.071,147.192C384.983,147.192 382.022,145.938 379.838,143.705C377.655,141.472 376.428,138.443 376.428,135.285C376.428,101.035 376.428,4.692 376.428,4.692L471.756,4.692Z" style="fill:rgb(251,207,99);"/>
        </g>
        <g transform="matrix(1.052646,0,0,1.014675,1569.272146,-0.068856)">
            <path d="M471.756,4.692L471.756,135.113C471.756,138.317 470.529,141.389 468.346,143.654C466.162,145.92 463.201,147.192 460.113,147.192C441.782,147.192 406.401,147.192 388.071,147.192C384.983,147.192 382.022,145.92 379.838,143.654C377.655,141.389 376.428,138.317 376.428,135.113C376.428,100.713 376.428,4.692 376.428,4.692L471.756,4.692Z" style="fill:rgb(251,207,99);"/>
        </g>
        <g transform="matrix(1.052646,0,0,1.014675,2365.659182,-4.761014)">
            <path d="M471.756,4.692L471.756,135.113C471.756,138.317 470.529,141.389 468.346,143.654C466.162,145.92 463.201,147.192 460.113,147.192C441.782,147.192 406.401,147.192 388.071,147.192C384.983,147.192 382.022,145.92 379.838,143.654C377.655,141.389 376.428,138.317 376.428,135.113C376.428,100.713 376.428,4.692 376.428,4.692L471.756,4.692Z" style="fill:rgb(251,207,99);"/>
        </g>
        <g transform="matrix(1,0,0,0.925508,3022.828819,-0.339278)">
            <path d="M154.475,5.436L154.475,101.242C154.475,115.212 149.339,128.609 140.197,138.487C131.055,148.365 118.656,153.914 105.727,153.914L105.727,153.914C78.804,153.914 56.978,130.332 56.978,101.242L56.978,5.436L154.475,5.436Z" style="fill:rgb(251,207,99);"/>
        </g>
    </g>
    <g transform="matrix(-1,0,-0,-1,3238.282214,1305.5625)">
        <g transform="matrix(1,0,0,0.984962,0,-0.662495)">
            <path d="M154.475,5.436L154.475,104.422C154.475,117.548 149.339,130.137 140.197,139.418C131.055,148.7 118.656,153.914 105.727,153.914L105.727,153.914C78.804,153.914 56.978,131.756 56.978,104.422L56.978,5.436L154.475,5.436Z" style="fill:rgb(251,207,99);"/>
        </g>
        <g transform="matrix(1,0,0,0.984962,158.362392,-0.662495)">
            <path d="M154.475,5.436L154.475,104.422C154.475,117.548 149.339,130.137 140.197,139.418C131.055,148.7 118.656,153.914 105.727,153.914L105.727,153.914C78.804,153.914 56.978,131.756 56.978,104.422L56.978,5.436L154.475,5.436Z" style="fill:rgb(251,207,99);"/>
        </g>
        <g transform="matrix(1,0,0,0.984962,477.540538,-0.662495)">
            <path d="M154.475,5.436L154.475,104.422C154.475,117.548 149.339,130.137 140.197,139.418C131.055,148.7 118.656,153.914 105.727,153.914L105.727,153.914C78.804,153.914 56.978,131.756 56.978,104.422L56.978,5.436L154.475,5.436Z" style="fill:rgb(251,207,99);"/>
        </g>
        <g transform="matrix(1,0,0,0.984962,636.972733,-0.662495)">
            <path d="M154.475,5.436L154.475,104.422C154.475,117.548 149.339,130.137 140.197,139.418C131.055,148.7 118.656,153.914 105.727,153.914L105.727,153.914C78.804,153.914 56.978,131.756 56.978,104.422L56.978,5.436L154.475,5.436Z" style="fill:rgb(251,207,99);"/>
        </g>
        <g transform="matrix(1,0,0,0.984962,796.672428,-0.662495)">
            <path d="M154.475,5.436L154.475,104.422C154.475,117.548 149.339,130.137 140.197,139.418C131.055,148.7 118.656,153.914 105.727,153.914L105.727,153.914C78.804,153.914 56.978,131.756 56.978,104.422L56.978,5.436L154.475,5.436Z" style="fill:rgb(251,207,99);"/>
        </g>
        <g transform="matrix(1,0,0,0.984962,955.837165,-0.662495)">
            <path d="M154.475,5.436L154.475,104.422C154.475,117.548 149.339,130.137 140.197,139.418C131.055,148.7 118.656,153.914 105.727,153.914L105.727,153.914C78.804,153.914 56.978,131.756 56.978,104.422L56.978,5.436L154.475,5.436Z" style="fill:rgb(251,207,99);"/>
        </g>
        <g transform="matrix(1,0,0,0.959739,1272.829059,-0.525373)">
            <path d="M154.475,5.436L154.475,103.121C154.475,116.592 149.339,129.512 140.197,139.037C131.055,148.563 118.656,153.914 105.727,153.914L105.727,153.914C78.804,153.914 56.978,131.173 56.978,103.121L56.978,5.436L154.475,5.436Z" style="fill:rgb(251,207,99);"/>
        </g>
        <g transform="matrix(1,0,0,0.959739,1432.796254,-0.525373)">
            <path d="M154.475,5.436L154.475,103.121C154.475,116.592 149.339,129.512 140.197,139.037C131.055,148.563 118.656,153.914 105.727,153.914L105.727,153.914C78.804,153.914 56.978,131.173 56.978,103.121L56.978,5.436L154.475,5.436Z" style="fill:rgb(251,207,99);"/>
        </g>
        <g transform="matrix(1,0,0,0.959739,1593.021695,-0.525373)">
            <path d="M154.475,5.436L154.475,103.121C154.475,116.592 149.339,129.512 140.197,139.037C131.055,148.563 118.656,153.914 105.727,153.914L105.727,153.914C78.804,153.914 56.978,131.173 56.978,103.121L56.978,5.436L154.475,5.436Z" style="fill:rgb(251,207,99);"/>
        </g>
        <g transform="matrix(1,0,0,0.959739,1752.18635,-0.525373)">
            <path d="M154.475,5.436L154.475,103.121C154.475,116.592 149.339,129.512 140.197,139.037C131.055,148.563 118.656,153.914 105.727,153.914L105.727,153.914C78.804,153.914 56.978,131.173 56.978,103.121L56.978,5.436L154.475,5.436Z" style="fill:rgb(251,207,99);"/>
        </g>
        <g transform="matrix(1,0,0,0.959739,2070.248222,-0.525373)">
            <path d="M154.475,5.436L154.475,103.121C154.475,116.592 149.339,129.512 140.197,139.037C131.055,148.563 118.656,153.914 105.727,153.914L105.727,153.914C78.804,153.914 56.978,131.173 56.978,103.121L56.978,5.436L154.475,5.436Z" style="fill:rgb(251,207,99);"/>
        </g>
        <g transform="matrix(1,0,0,0.959739,2229.145398,-0.525373)">
            <path d="M154.475,5.436L154.475,103.121C154.475,116.592 149.339,129.512 140.197,139.037C131.055,148.563 118.656,153.914 105.727,153.914L105.727,153.914C78.804,153.914 56.978,131.173 56.978,103.121L56.978,5.436L154.475,5.436Z" style="fill:rgb(251,207,99);"/>
        </g>
        <g transform="matrix(1,0,0,0.959739,2388.577614,-0.525373)">
            <path d="M154.475,5.436L154.475,103.121C154.475,116.592 149.339,129.512 140.197,139.037C131.055,148.563 118.656,153.914 105.727,153.914L105.727,153.914C78.804,153.914 56.978,131.173 56.978,103.121L56.978,5.436L154.475,5.436Z" style="fill:rgb(251,207,99);"/>
        </g>
        <g transform="matrix(1,0,0,0.959739,2547.47481,-0.525373)">
            <path d="M154.475,5.436L154.475,103.121C154.475,116.592 149.339,129.512 140.197,139.037C131.055,148.563 118.656,153.914 105.727,153.914L105.727,153.914C78.804,153.914 56.978,131.173 56.978,103.121L56.978,5.436L154.475,5.436Z" style="fill:rgb(251,207,99);"/>
        </g>
        <g transform="matrix(1,0,0,0.925508,2865.536682,-0.339278)">
            <path d="M154.475,5.436L154.475,101.242C154.475,115.212 149.339,128.609 140.197,138.487C131.055,148.365 118.656,153.914 105.727,153.914L105.727,153.914C78.804,153.914 56.978,130.332 56.978,101.242L56.978,5.436L154.475,5.436Z" style="fill:rgb(251,207,99);"/>
        </g>
        <g transform="matrix(1.052646,0,0,1.029349,-21.699547,-0.137711)">
            <path d="M471.756,4.692L471.756,135.285C471.756,138.443 470.529,141.472 468.346,143.705C466.162,145.938 463.201,147.192 460.113,147.192C441.782,147.192 406.401,147.192 388.071,147.192C384.983,147.192 382.022,145.938 379.838,143.705C377.655,141.472 376.428,138.443 376.428,135.285C376.428,101.035 376.428,4.692 376.428,4.692L471.756,4.692Z" style="fill:rgb(251,207,99);"/>
        </g>
        <g transform="matrix(1.052646,0,0,1.029349,772.965388,-2.228845)">
            <path d="M471.756,4.692L471.756,135.285C471.756,138.443 470.529,141.472 468.346,143.705C466.162,145.938 463.201,147.192 460.113,147.192C441.782,147.192 406.401,147.192 388.071,147.192C384.983,147.192 382.022,145.938 379.838,143.705C377.655,141.472 376.428,138.443 376.428,135.285C376.428,101.035 376.428,4.692 376.428,4.692L471.756,4.692Z" style="fill:rgb(251,207,99);"/>
        </g>
        <g transform="matrix(1.052646,0,0,1.014675,1569.272146,-0.068856)">
            <path d="M471.756,4.692L471.756,135.113C471.756,138.317 470.529,141.389 468.346,143.654C466.162,145.92 463.201,147.192 460.113,147.192C441.782,147.192 406.401,147.192 388.071,147.192C384.983,147.192 382.022,145.92 379.838,143.654C377.655,141.389 376.428,138.317 376.428,135.113C376.428,100.713 376.428,4.692 376.428,4.692L471.756,4.692Z" style="fill:rgb(251,207,99);"/>
        </g>
        <g transform="matrix(1.052646,0,0,1.014675,2365.659182,-4.761014)">
            <path d="M471.756,4.692L471.756,135.113C471.756,138.317 470.529,141.389 468.346,143.654C466.162,145.92 463.201,147.192 460.113,147.192C441.782,147.192 406.401,147.192 388.071,147.192C384.983,147.192 382.022,145.92 379.838,143.654C377.655,141.389 376.428,138.317 376.428,135.113C376.428,100.713 376.428,4.692 376.428,4.692L471.756,4.692Z" style="fill:rgb(251,207,99);"/>
        </g>
        <g transform="matrix(1,0,0,0.925508,3022.828819,-0.339278)">
            <path d="M154.475,5.436L154.475,101.242C154.475,115.212 149.339,128.609 140.197,138.487C131.055,148.365 118.656,153.914 105.727,153.914L105.727,153.914C78.804,153.914 56.978,130.332 56.978,101.242L56.978,5.436L154.475,5.436Z" style="fill:rgb(251,207,99);"/>
        </g>
    </g>
    <g transform="matrix(0,-1.052646,1.029349,0,21.832181,1106.730571)">
        <path d="M471.756,4.692L471.756,135.285C471.756,138.443 470.529,141.472 468.346,143.705C466.162,145.938 463.201,147.192 460.113,147.192C441.782,147.192 406.401,147.192 388.071,147.192C384.983,147.192 382.022,145.938 379.838,143.705C377.655,141.472 376.428,138.443 376.428,135.285C376.428,101.035 376.428,4.692 376.428,4.692L471.756,4.692Z" style="fill:rgb(251,207,99);"/>
    </g>
    <g transform="matrix(0,-1,0.984962,0,21.307397,605.663829)">
        <path d="M154.475,5.436L154.475,104.422C154.475,117.548 149.339,130.137 140.197,139.418C131.055,148.7 118.656,153.914 105.727,153.914L105.727,153.914C78.804,153.914 56.978,131.756 56.978,104.422L56.978,5.436L154.475,5.436Z" style="fill:rgb(251,207,99);"/>
    </g>
    <g transform="matrix(0,-1,0.984962,0,21.744609,921.66213)">
        <path d="M154.475,5.436L154.475,104.422C154.475,117.548 149.339,130.137 140.197,139.418C131.055,148.7 118.656,153.914 105.727,153.914L105.727,153.914C78.804,153.914 56.978,131.756 56.978,104.422L56.978,5.436L154.475,5.436Z" style="fill:rgb(251,207,99);"/>
    </g>
    <g transform="matrix(0.975014,0,0,0.975014,72.964741,22.440558)">
        <g transform="matrix(0.193843,0,0,0.270431,2314.053441,653.669142)">
            <rect x="2953.736" y="419.712" width="346.264" height="484.183" style="fill:rgb(199,199,199);"/>
        </g>
        <g transform="matrix(0.193843,0,0,0.270431,2314.053441,293.949199)">
            <rect x="2953.736" y="419.712" width="346.264" height="484.183" style="fill:rgb(199,199,199);"/>
        </g>
        <g transform="matrix(0.193843,0,0,0.052006,2314.053441,700.739432)">
            <rect x="2953.736" y="419.712" width="346.264" height="484.183" style="fill:rgb(199,199,199);"/>
        </g>
        <g transform="matrix(0.193843,0,0,0.052006,2314.053441,659.731377)">
            <rect x="2953.736" y="419.712" width="346.264" height="484.183" style="fill:rgb(199,199,199);"/>
        </g>
        <g transform="matrix(0.193843,0,0,0.052006,2314.053441,618.334211)">
            <rect x="2953.736" y="419.712" width="346.264" height="484.183" style="fill:rgb(199,199,199);"/>
        </g>
        <g transform="matrix(0.193843,0,0,0.052006,2314.053441,577.326129)">
            <rect x="2953.736" y="419.712" width="346.264" height="484.183" style="fill:rgb(199,199,199);"/>
        </g>
        <g transform="matrix(0.193843,0,0,0.052006,2314.053441,537.037503)">
            <rect x="2953.736" y="419.712" width="346.264" height="484.183" style="fill:rgb(199,199,199);"/>
        </g>
    </g>
    <g transform="matrix(1.020864,0,0,0.988113,-68.850942,4.989167)">
        <rect x="2953.736" y="419.712" width="346.264" height="484.183" style="fill:rgb(216,219,224);"/>
    </g>
    <g>
        <g transform="matrix(0.028158,0,0,1.059051,1380.113569,-40.624136)">
            <path d="M1590.908,443.189C1711.982,443.189 1810.132,445.798 1810.132,449.018C1810.132,496.826 1810.132,823.797 1810.132,871.606C1810.132,874.825 1711.982,877.435 1590.908,877.435C1589.137,877.435 1587.365,877.435 1585.594,877.435C1464.52,877.435 1366.37,874.825 1366.37,871.606C1366.37,823.797 1366.37,496.826 1366.37,449.018C1366.37,445.798 1464.52,443.189 1585.594,443.189C1587.365,443.189 1589.137,443.189 1590.908,443.189Z" style="fill:rgb(235,235,235);"/>
        </g>
        <g transform="matrix(0,0.028158,-1.059051,0,2291.154908,444.191081)">
            <path d="M1590.908,443.189C1711.982,443.189 1810.132,445.798 1810.132,449.018C1810.132,496.826 1810.132,823.797 1810.132,871.606C1810.132,874.825 1711.982,877.435 1590.908,877.435C1589.137,877.435 1587.365,877.435 1585.594,877.435C1464.52,877.435 1366.37,874.825 1366.37,871.606C1366.37,823.797 1366.37,496.826 1366.37,449.018C1366.37,445.798 1464.52,443.189 1585.594,443.189C1587.365,443.189 1589.137,443.189 1590.908,443.189Z" style="fill:rgb(235,235,235);"/>
        </g>
        <g transform="matrix(0.028158,0,0,1.059051,1404.823952,-40.624136)">
            <path d="M1590.908,443.189C1711.982,443.189 1810.132,445.798 1810.132,449.018C1810.132,496.826 1810.132,823.797 1810.132,871.606C1810.132,874.825 1711.982,877.435 1590.908,877.435C1589.137,877.435 1587.365,877.435 1585.594,877.435C1464.52,877.435 1366.37,874.825 1366.37,871.606C1366.37,823.797 1366.37,496.826 1366.37,449.018C1366.37,445.798 1464.52,443.189 1585.594,443.189C1587.365,443.189 1589.137,443.189 1590.908,443.189Z" style="fill:rgb(235,235,235);"/>
        </g>
        <g transform="matrix(0,0.028158,-1.059051,0,2291.154908,468.901465)">
            <path d="M1590.908,443.189C1711.982,443.189 1810.132,445.798 1810.132,449.018C1810.132,496.826 1810.132,823.797 1810.132,871.606C1810.132,874.825 1711.982,877.435 1590.908,877.435C1589.137,877.435 1587.365,877.435 1585.594,877.435C1464.52,877.435 1366.37,874.825 1366.37,871.606C1366.37,823.797 1366.37,496.826 1366.37,449.018C1366.37,445.798 1464.52,443.189 1585.594,443.189C1587.365,443.189 1589.137,443.189 1590.908,443.189Z" style="fill:rgb(235,235,235);"/>
        </g>
        <g transform="matrix(0.028158,0,0,1.059051,1430.466788,-40.624136)">
            <path d="M1590.908,443.189C1711.982,443.189 1810.132,445.798 1810.132,449.018C1810.132,496.826 1810.132,823.797 1810.132,871.606C1810.132,874.825 1711.982,877.435 1590.908,877.435C1589.137,877.435 1587.365,877.435 1585.594,877.435C1464.52,877.435 1366.37,874.825 1366.37,871.606C1366.37,823.797 1366.37,496.826 1366.37,449.018C1366.37,445.798 1464.52,443.189 1585.594,443.189C1587.365,443.189 1589.137,443.189 1590.908,443.189Z" style="fill:rgb(235,235,235);"/>
        </g>
        <g transform="matrix(0,0.028158,-1.059051,0,2291.154908,494.5443)">
            <path d="M1590.908,443.189C1711.982,443.189 1810.132,445.798 1810.132,449.018C1810.132,496.826 1810.132,823.797 1810.132,871.606C1810.132,874.825 1711.982,877.435 1590.908,877.435C1589.137,877.435 1587.365,877.435 1585.594,877.435C1464.52,877.435 1366.37,874.825 1366.37,871.606C1366.37,823.797 1366.37,496.826 1366.37,449.018C1366.37,445.798 1464.52,443.189 1585.594,443.189C1587.365,443.189 1589.137,443.189 1590.908,443.189Z" style="fill:rgb(235,235,235);"/>
        </g>
        <g transform="matrix(0.028158,0,0,1.059051,1455.177171,-40.157901)">
            <path d="M1590.908,443.189C1711.982,443.189 1810.132,445.798 1810.132,449.018C1810.132,496.826 1810.132,823.797 1810.132,871.606C1810.132,874.825 1711.982,877.435 1590.908,877.435C1589.137,877.435 1587.365,877.435 1585.594,877.435C1464.52,877.435 1366.37,874.825 1366.37,871.606C1366.37,823.797 1366.37,496.826 1366.37,449.018C1366.37,445.798 1464.52,443.189 1585.594,443.189C1587.365,443.189 1589.137,443.189 1590.908,443.189Z" style="fill:rgb(235,235,235);"/>
        </g>
        <g transform="matrix(0,0.028158,-1.059051,0,2290.688673,519.254683)">
            <path d="M1590.908,443.189C1711.982,443.189 1810.132,445.798 1810.132,449.018C1810.132,496.826 1810.132,823.797 1810.132,871.606C1810.132,874.825 1711.982,877.435 1590.908,877.435C1589.137,877.435 1587.365,877.435 1585.594,877.435C1464.52,877.435 1366.37,874.825 1366.37,871.606C1366.37,823.797 1366.37,496.826 1366.37,449.018C1366.37,445.798 1464.52,443.189 1585.594,443.189C1587.365,443.189 1589.137,443.189 1590.908,443.189Z" style="fill:rgb(235,235,235);"/>
        </g>
        <g transform="matrix(0.028158,0,0,1.059051,1481.286269,-40.157901)">
            <path d="M1590.908,443.189C1711.982,443.189 1810.132,445.798 1810.132,449.018C1810.132,496.826 1810.132,823.797 1810.132,871.606C1810.132,874.825 1711.982,877.435 1590.908,877.435C1589.137,877.435 1587.365,877.435 1585.594,877.435C1464.52,877.435 1366.37,874.825 1366.37,871.606C1366.37,823.797 1366.37,496.826 1366.37,449.018C1366.37,445.798 1464.52,443.189 1585.594,443.189C1587.365,443.189 1589.137,443.189 1590.908,443.189Z" style="fill:rgb(235,235,235);"/>
        </g>
        <g transform="matrix(0,0.028158,-1.059051,0,2290.688673,545.363781)">
            <path d="M1590.908,443.189C1711.982,443.189 1810.132,445.798 1810.132,449.018C1810.132,496.826 1810.132,823.797 1810.132,871.606C1810.132,874.825 1711.982,877.435 1590.908,877.435C1589.137,877.435 1587.365,877.435 1585.594,877.435C1464.52,877.435 1366.37,874.825 1366.37,871.606C1366.37,823.797 1366.37,496.826 1366.37,449.018C1366.37,445.798 1464.52,443.189 1585.594,443.189C1587.365,443.189 1589.137,443.189 1590.908,443.189Z" style="fill:rgb(235,235,235);"/>
        </g>
        <g transform="matrix(0.028158,0,0,1.059051,1505.53039,-40.624136)">
            <path d="M1590.908,443.189C1711.982,443.189 1810.132,445.798 1810.132,449.018C1810.132,496.826 1810.132,823.797 1810.132,871.606C1810.132,874.825 1711.982,877.435 1590.908,877.435C1589.137,877.435 1587.365,877.435 1585.594,877.435C1464.52,877.435 1366.37,874.825 1366.37,871.606C1366.37,823.797 1366.37,496.826 1366.37,449.018C1366.37,445.798 1464.52,443.189 1585.594,443.189C1587.365,443.189 1589.137,443.189 1590.908,443.189Z" style="fill:rgb(235,235,235);"/>
        </g>
        <g transform="matrix(0,0.028158,-1.059051,0,2291.154908,569.607902)">
            <path d="M1590.908,443.189C1711.982,443.189 1810.132,445.798 1810.132,449.018C1810.132,496.826 1810.132,823.797 1810.132,871.606C1810.132,874.825 1711.982,877.435 1590.908,877.435C1589.137,877.435 1587.365,877.435 1585.594,877.435C1464.52,877.435 1366.37,874.825 1366.37,871.606C1366.37,823.797 1366.37,496.826 1366.37,449.018C1366.37,445.798 1464.52,443.189 1585.594,443.189C1587.365,443.189 1589.137,443.189 1590.908,443.189Z" style="fill:rgb(235,235,235);"/>
        </g>
        <g transform="matrix(0.028158,0,0,1.059051,1530.707035,-40.624136)">
            <path d="M1590.908,443.189C1711.982,443.189 1810.132,445.798 1810.132,449.018C1810.132,496.826 1810.132,823.797 1810.132,871.606C1810.132,874.825 1711.982,877.435 1590.908,877.435C1589.137,877.435 1587.365,877.435 1585.594,877.435C1464.52,877.435 1366.37,874.825 1366.37,871.606C1366.37,823.797 1366.37,496.826 1366.37,449.018C1366.37,445.798 1464.52,443.189 1585.594,443.189C1587.365,443.189 1589.137,443.189 1590.908,443.189Z" style="fill:rgb(235,235,235);"/>
        </g>
        <g transform="matrix(0,0.028158,-1.059051,0,2291.154908,594.784547)">
            <path d="M1590.908,443.189C1711.982,443.189 1810.132,445.798 1810.132,449.018C1810.132,496.826 1810.132,823.797 1810.132,871.606C1810.132,874.825 1711.982,877.435 1590.908,877.435C1589.137,877.435 1587.365,877.435 1585.594,877.435C1464.52,877.435 1366.37,874.825 1366.37,871.606C1366.37,823.797 1366.37,496.826 1366.37,449.018C1366.37,445.798 1464.52,443.189 1585.594,443.189C1587.365,443.189 1589.137,443.189 1590.908,443.189Z" style="fill:rgb(235,235,235);"/>
        </g>
        <g transform="matrix(0.028158,0,0,1.059051,1556.816061,-40.624136)">
            <path d="M1590.908,443.189C1711.982,443.189 1810.132,445.798 1810.132,449.018C1810.132,496.826 1810.132,823.797 1810.132,871.606C1810.132,874.825 1711.982,877.435 1590.908,877.435C1589.137,877.435 1587.365,877.435 1585.594,877.435C1464.52,877.435 1366.37,874.825 1366.37,871.606C1366.37,823.797 1366.37,496.826 1366.37,449.018C1366.37,445.798 1464.52,443.189 1585.594,443.189C1587.365,443.189 1589.137,443.189 1590.908,443.189Z" style="fill:rgb(235,235,235);"/>
        </g>
        <g transform="matrix(0,0.028158,-1.059051,0,2291.154908,620.893574)">
            <path d="M1590.908,443.189C1711.982,443.189 1810.132,445.798 1810.132,449.018C1810.132,496.826 1810.132,823.797 1810.132,871.606C1810.132,874.825 1711.982,877.435 1590.908,877.435C1589.137,877.435 1587.365,877.435 1585.594,877.435C1464.52,877.435 1366.37,874.825 1366.37,871.606C1366.37,823.797 1366.37,496.826 1366.37,449.018C1366.37,445.798 1464.52,443.189 1585.594,443.189C1587.365,443.189 1589.137,443.189 1590.908,443.189Z" style="fill:rgb(235,235,235);"/>
        </g>
        <g transform="matrix(0.028158,0,0,1.059051,1580.692868,-40.624136)">
            <path d="M1590.908,443.189C1711.982,443.189 1810.132,445.798 1810.132,449.018C1810.132,496.826 1810.132,823.797 1810.132,871.606C1810.132,874.825 1711.982,877.435 1590.908,877.435C1589.137,877.435 1587.365,877.435 1585.594,877.435C1464.52,877.435 1366.37,874.825 1366.37,871.606C1366.37,823.797 1366.37,496.826 1366.37,449.018C1366.37,445.798 1464.52,443.189 1585.594,443.189C1587.365,443.189 1589.137,443.189 1590.908,443.189Z" style="fill:rgb(235,235,235);"/>
        </g>
        <g transform="matrix(0,0.028158,-1.059051,0,2291.154908,644.77038)">
            <path d="M1590.908,443.189C1711.982,443.189 1810.132,445.798 1810.132,449.018C1810.132,496.826 1810.132,823.797 1810.132,871.606C1810.132,874.825 1711.982,877.435 1590.908,877.435C1589.137,877.435 1587.365,877.435 1585.594,877.435C1464.52,877.435 1366.37,874.825 1366.37,871.606C1366.37,823.797 1366.37,496.826 1366.37,449.018C1366.37,445.798 1464.52,443.189 1585.594,443.189C1587.365,443.189 1589.137,443.189 1590.908,443.189Z" style="fill:rgb(235,235,235);"/>
        </g>
        <g transform="matrix(0.028158,0,0,1.059051,1605.277436,-40.157901)">
            <path d="M1590.908,443.189C1711.982,443.189 1810.132,445.798 1810.132,449.018C1810.132,496.826 1810.132,823.797 1810.132,871.606C1810.132,874.825 1711.982,877.435 1590.908,877.435C1589.137,877.435 1587.365,877.435 1585.594,877.435C1464.52,877.435 1366.37,874.825 1366.37,871.606C1366.37,823.797 1366.37,496.826 1366.37,449.018C1366.37,445.798 1464.52,443.189 1585.594,443.189C1587.365,443.189 1589.137,443.189 1590.908,443.189Z" style="fill:rgb(235,235,235);"/>
        </g>
        <g transform="matrix(0,0.028158,-1.059051,0,2290.688673,669.354949)">
            <path d="M1590.908,443.189C1711.982,443.189 1810.132,445.798 1810.132,449.018C1810.132,496.826 1810.132,823.797 1810.132,871.606C1810.132,874.825 1711.982,877.435 1590.908,877.435C1589.137,877.435 1587.365,877.435 1585.594,877.435C1464.52,877.435 1366.37,874.825 1366.37,871.606C1366.37,823.797 1366.37,496.826 1366.37,449.018C1366.37,445.798 1464.52,443.189 1585.594,443.189C1587.365,443.189 1589.137,443.189 1590.908,443.189Z" style="fill:rgb(235,235,235);"/>
        </g>
        <g transform="matrix(0.028158,0,0,1.059051,1631.386463,-40.157901)">
            <path d="M1590.908,443.189C1711.982,443.189 1810.132,445.798 1810.132,449.018C1810.132,496.826 1810.132,823.797 1810.132,871.606C1810.132,874.825 1711.982,877.435 1590.908,877.435C1589.137,877.435 1587.365,877.435 1585.594,877.435C1464.52,877.435 1366.37,874.825 1366.37,871.606C1366.37,823.797 1366.37,496.826 1366.37,449.018C1366.37,445.798 1464.52,443.189 1585.594,443.189C1587.365,443.189 1589.137,443.189 1590.908,443.189Z" style="fill:rgb(235,235,235);"/>
        </g>
        <g transform="matrix(0,0.028158,-1.059051,0,2290.688673,695.463975)">
            <path d="M1590.908,443.189C1711.982,443.189 1810.132,445.798 1810.132,449.018C1810.132,496.826 1810.132,823.797 1810.132,871.606C1810.132,874.825 1711.982,877.435 1590.908,877.435C1589.137,877.435 1587.365,877.435 1585.594,877.435C1464.52,877.435 1366.37,874.825 1366.37,871.606C1366.37,823.797 1366.37,496.826 1366.37,449.018C1366.37,445.798 1464.52,443.189 1585.594,443.189C1587.365,443.189 1589.137,443.189 1590.908,443.189Z" style="fill:rgb(235,235,235);"/>
        </g>
        <g transform="matrix(0.028158,0,0,1.059051,1657.961751,-38.992327)">
            <path d="M1590.908,443.189C1711.982,443.189 1810.132,445.798 1810.132,449.018C1810.132,496.826 1810.132,823.797 1810.132,871.606C1810.132,874.825 1711.982,877.435 1590.908,877.435C1589.137,877.435 1587.365,877.435 1585.594,877.435C1464.52,877.435 1366.37,874.825 1366.37,871.606C1366.37,823.797 1366.37,496.826 1366.37,449.018C1366.37,445.798 1464.52,443.189 1585.594,443.189C1587.365,443.189 1589.137,443.189 1590.908,443.189Z" style="fill:rgb(235,235,235);"/>
        </g>
        <g transform="matrix(0,0.028158,-1.059051,0,2289.523098,722.039263)">
            <path d="M1590.908,443.189C1711.982,443.189 1810.132,445.798 1810.132,449.018C1810.132,496.826 1810.132,823.797 1810.132,871.606C1810.132,874.825 1711.982,877.435 1590.908,877.435C1589.137,877.435 1587.365,877.435 1585.594,877.435C1464.52,877.435 1366.37,874.825 1366.37,871.606C1366.37,823.797 1366.37,496.826 1366.37,449.018C1366.37,445.798 1464.52,443.189 1585.594,443.189C1587.365,443.189 1589.137,443.189 1590.908,443.189Z" style="fill:rgb(235,235,235);"/>
        </g>
        <g transform="matrix(0.028158,0,0,1.059051,1683.604587,-40.624136)">
            <path d="M1590.908,443.189C1711.982,443.189 1810.132,445.798 1810.132,449.018C1810.132,496.826 1810.132,823.797 1810.132,871.606C1810.132,874.825 1711.982,877.435 1590.908,877.435C1589.137,877.435 1587.365,877.435 1585.594,877.435C1464.52,877.435 1366.37,874.825 1366.37,871.606C1366.37,823.797 1366.37,496.826 1366.37,449.018C1366.37,445.798 1464.52,443.189 1585.594,443.189C1587.365,443.189 1589.137,443.189 1590.908,443.189Z" style="fill:rgb(235,235,235);"/>
        </g>
        <g transform="matrix(0,0.028158,-1.059051,0,2291.154908,747.682099)">
            <path d="M1590.908,443.189C1711.982,443.189 1810.132,445.798 1810.132,449.018C1810.132,496.826 1810.132,823.797 1810.132,871.606C1810.132,874.825 1711.982,877.435 1590.908,877.435C1589.137,877.435 1587.365,877.435 1585.594,877.435C1464.52,877.435 1366.37,874.825 1366.37,871.606C1366.37,823.797 1366.37,496.826 1366.37,449.018C1366.37,445.798 1464.52,443.189 1585.594,443.189C1587.365,443.189 1589.137,443.189 1590.908,443.189Z" style="fill:rgb(235,235,235);"/>
        </g>
        <g transform="matrix(0.028158,0,0,1.059051,1707.848779,-40.624136)">
            <path d="M1590.908,443.189C1711.982,443.189 1810.132,445.798 1810.132,449.018C1810.132,496.826 1810.132,823.797 1810.132,871.606C1810.132,874.825 1711.982,877.435 1590.908,877.435C1589.137,877.435 1587.365,877.435 1585.594,877.435C1464.52,877.435 1366.37,874.825 1366.37,871.606C1366.37,823.797 1366.37,496.826 1366.37,449.018C1366.37,445.798 1464.52,443.189 1585.594,443.189C1587.365,443.189 1589.137,443.189 1590.908,443.189Z" style="fill:rgb(235,235,235);"/>
        </g>
        <g transform="matrix(0,0.028158,-1.059051,0,2291.154908,771.926292)">
            <path d="M1590.908,443.189C1711.982,443.189 1810.132,445.798 1810.132,449.018C1810.132,496.826 1810.132,823.797 1810.132,871.606C1810.132,874.825 1711.982,877.435 1590.908,877.435C1589.137,877.435 1587.365,877.435 1585.594,877.435C1464.52,877.435 1366.37,874.825 1366.37,871.606C1366.37,823.797 1366.37,496.826 1366.37,449.018C1366.37,445.798 1464.52,443.189 1585.594,443.189C1587.365,443.189 1589.137,443.189 1590.908,443.189Z" style="fill:rgb(235,235,235);"/>
        </g>
    </g>
    <g transform="matrix(1,0,0,1,4,-0)">
        <rect x="1366.37" y="443.189" width="443.761" height="434.246" style="fill:rgb(39,34,38);"/>
    </g>
    <g transform="matrix(0,1,-1,0,3308.657455,-5.771686)">
        <text x="480.228px" y="1826.738px" style="font-family:'ArialMT', 'Arial', sans-serif;font-size:50px;fill:rgb(187,175,153);stroke:rgb(49,44,46);stroke-width:1px;">RP2-80     20/21</text>
        <g transform="matrix(50,0,0,50,840.579312,1884.233206)">
        </g>
        <text x="480.228px" y="1884.233px" style="font-family:'ArialMT', 'Arial', sans-serif;font-size:50px;fill:rgb(187,175,153);stroke:rgb(49,44,46);stroke-width:1px;">P64M15.00 <tspan x="748.953px 779.495px " y="1884.233px 1884.233px ">TT</tspan>T</text>
    </g>
</svg>
